<svg xmlns="http://www.w3.org/2000/svg" viewBox="0 0 1992.96 1992.96"><defs><style>.cls-1{fill:#fff;}</style></defs><g id="Layer_1" data-name="Layer 1"><path class="cls-1" d="M733,1463.48,953.5,1336.17a500.44,500.44,0,0,1-126.76-80.74l.86-2.07a33.28,33.28,0,0,1-22-31.44V777.52a33.13,33.13,0,0,1,17.6-29.44,448.68,448.68,0,0,0-140.33,88.54V1434.5C682.83,1460.26,710.71,1476.35,733,1463.48Z" transform="translate(-3.99 -3.24)"/><path class="cls-1" d="M1257.34,999.72a33.14,33.14,0,0,1-16.73,29l-384.87,222.2a32.94,32.94,0,0,1-28.14,2.47l-.86,2.07a500.44,500.44,0,0,0,126.76,80.74l532.58-307.48c22.3-12.87,22.3-45.07,0-57.94L1203,807.31a365.78,365.78,0,0,1,54.35,192.41Z" transform="translate(-3.99 -3.24)"/><path class="cls-1" d="M855.74,748.55l384.87,222.2a33.14,33.14,0,0,1,16.73,29h0A365.78,365.78,0,0,0,1203,807.31L733,536c-22.3-12.87-50.18,3.22-50.18,29V836.62a448.68,448.68,0,0,1,140.33-88.54A33.1,33.1,0,0,1,855.74,748.55Z" transform="translate(-3.99 -3.24)"/><path class="cls-1" d="M1000.48,3.24C450.13,3.24,4,449.38,4,999.72s446.14,996.48,996.49,996.48S1997,1550.06,1997,999.72,1550.82,3.24,1000.48,3.24Zm0,1819.51c-454.55,0-823-368.48-823-823s368.49-823,823-823,823,368.48,823,823S1455,1822.75,1000.48,1822.75Z" transform="translate(-3.99 -3.24)"/></g></svg>