<svg width="22" height="28" viewBox="0 0 22 28" fill="none" xmlns="http://www.w3.org/2000/svg">
<path fill-rule="evenodd" clip-rule="evenodd" d="M5.00044 6C5.00044 2.68629 7.68673 0 11.0004 0C14.3142 0 17.0004 2.68629 17.0004 6C17.0004 9.31371 14.3142 12 11.0004 12C7.68673 12 5.00044 9.31371 5.00044 6Z" fill="#EBFAFF"/>
<path fill-rule="evenodd" clip-rule="evenodd" d="M0.00210237 24.8071C0.105223 18.8208 4.98975 14 11.0004 14C17.0113 14 21.8959 18.821 21.9988 24.8075C22.0056 25.2046 21.7769 25.568 21.416 25.7336C18.2441 27.1891 14.7158 28 11.0009 28C7.28559 28 3.75702 27.1889 0.58487 25.7332C0.223977 25.5676 -0.00473673 25.2041 0.00210237 24.8071Z" fill="#EBFAFF"/>
</svg>
